<svg width="24" height="24" viewBox="0 0 24 24" fill="none" xmlns="http://www.w3.org/2000/svg">
<path d="M22.6963 3.99316L19.5762 0.875977C19.1953 0.495117 18.6855 0.28125 18.1465 0.28125C17.6074 0.28125 17.0977 0.492188 16.7168 0.875977L13.3564 4.23047C12.9756 4.61133 12.7617 5.12402 12.7617 5.66309C12.7617 6.20508 12.9727 6.71191 13.3564 7.0957L15.9814 9.72363C15.3834 11.1169 14.5242 12.3829 13.4502 13.4531C12.375 14.5342 11.1182 15.3867 9.72363 15.9902L7.09863 13.3623C6.71777 12.9814 6.20801 12.7676 5.66894 12.7676C5.40306 12.7666 5.13964 12.8187 4.89415 12.9208C4.64865 13.0229 4.426 13.173 4.23926 13.3623L0.875977 16.7168C0.495117 17.0977 0.28125 17.6104 0.28125 18.1494C0.28125 18.6914 0.492188 19.1982 0.875977 19.582L3.99316 22.6992C4.64355 23.3496 5.54004 23.7217 6.45996 23.7217C6.65039 23.7217 6.83496 23.707 7.02246 23.6748C10.9014 23.0361 14.751 20.9707 17.8594 17.8652C20.9648 14.7539 23.0273 10.9043 23.6719 7.02246C23.8564 5.9209 23.4873 4.78711 22.6963 3.99316V3.99316ZM21.5947 6.67383C21.0234 10.1279 19.166 13.5732 16.3682 16.3711C13.5703 19.1689 10.1279 21.0264 6.67383 21.5977C6.24023 21.6709 5.79492 21.5244 5.47852 21.2109L2.41699 18.1494L5.66309 14.9004L9.17285 18.416L9.19922 18.4424L9.83203 18.208C11.7508 17.5026 13.4932 16.3883 14.9384 14.9425C16.3837 13.4967 17.4974 11.7539 18.2021 9.83496L18.4365 9.20215L14.8975 5.66601L18.1436 2.41699L21.2051 5.47852C21.5215 5.79492 21.668 6.24023 21.5947 6.67383Z" fill="black"/>
</svg>
