<?xml version="1.0" encoding="UTF-8" standalone="no"?>
<!-- Created with Inkscape (http://www.inkscape.org/) -->

<svg
   width="49.476158mm"
   height="19.395353mm"
   viewBox="0 0 49.476158 19.395353"
   version="1.1"
   id="svg5"
   inkscape:version="1.1.2 (0a00cf5339, 2022-02-04)"
   sodipodi:docname="logo.purple.svg"
   xmlns:inkscape="http://www.inkscape.org/namespaces/inkscape"
   xmlns:sodipodi="http://sodipodi.sourceforge.net/DTD/sodipodi-0.dtd"
   xmlns="http://www.w3.org/2000/svg"
   xmlns:svg="http://www.w3.org/2000/svg">
  <sodipodi:namedview
     id="namedview7"
     pagecolor="#ffffff"
     bordercolor="#666666"
     borderopacity="1.0"
     inkscape:pageshadow="2"
     inkscape:pageopacity="0.0"
     inkscape:pagecheckerboard="0"
     inkscape:document-units="mm"
     showgrid="false"
     fit-margin-top="0"
     fit-margin-left="0"
     fit-margin-right="0"
     fit-margin-bottom="0"
     inkscape:zoom="2.9359978"
     inkscape:cx="85.660827"
     inkscape:cy="65.565444"
     inkscape:window-width="1920"
     inkscape:window-height="1016"
     inkscape:window-x="0"
     inkscape:window-y="27"
     inkscape:window-maximized="1"
     inkscape:current-layer="layer1" />
  <defs
     id="defs2" />
  <g
     inkscape:label="Layer 1"
     inkscape:groupmode="layer"
     id="layer1"
     transform="translate(-83.782874,-94.968338)">
    <path
       d="m 98.348497,107.71277 c 0,0 1.961803,-1.80041 2.409403,-2.20446 0.85439,-0.77142 -0.14314,-1.59496 -0.73948,-1.45592 -0.832893,0.19423 -1.804733,0.83362 -2.827873,1.41235 0,0 -3.82725,1.13593 -5.12903,3.16679 -1.86224,2.90529 2.0619,5.2931 2.0619,5.2931 1.67788,-1.6125 3.16854,-2.73124 4.91387,-3.54288 1.273753,-0.59232 2.610383,-1.18853 3.043683,-1.29249 0.90327,-0.21672 1.44646,-2.07631 1.69511,-3.28239 0.23196,-1.12498 0.88151,-3.5732 -0.075,-3.57325 -0.87093,-3e-5 -1.20965,0.90535 -1.34136,1.60949 -0.13594,0.72681 -0.32861,1.44158 -0.59727,2.1296 l -0.0528,0.13518 -2.413473,0.73583"
       stroke="#5903ae"
       stroke-width="3"
       stroke-miterlimit="10"
       id="path824"
       style="fill:#ffffff;fill-opacity:1;stroke-width:0.7;stroke-miterlimit:10;stroke-dasharray:none" />
    <path
       d="m 92.061417,108.63153 c 1.30177,-2.03086 5.12897,-3.16679 5.12897,-3.16679 1.02322,-0.57873 1.99504,-1.21812 2.827923,-1.41235 0.59629,-0.13906 1.5939,0.68448 0.73948,1.4559 -0.44759,0.40407 -1.461693,1.33543 -1.461693,1.33543 l 2.413513,-0.73583 0.0528,-0.13521 c 0.26865,-0.68799 0.46132,-1.40279 0.59727,-2.12957 0.13171,-0.70417 0.47043,-1.60954 1.34138,-1.60949 0.26069,3e-5 0.40151,0.18275 0.4645,0.47024 0.36455,-1.27545 0.29224,-2.09444 0.29224,-2.09444 h -6.9e-4 c 0.003,-0.0717 0.006,-0.14354 0.006,-0.21595 0,-2.906102 -2.42443,-5.425132 -5.415183,-5.425132 -2.18659,0 -4.06921,1.42323 -4.92413,3.23623 h -10e-4 c -0.85495,-1.813 -2.73756,-3.23623 -4.92416,-3.23623 -2.99072,0 -5.41517,2.51903 -5.41517,5.425132 0,0.0724 0.003,0.14425 0.006,0.21595 h -7.2e-4 c 0,0 -0.30573,3.45226 3.49443,7.22138 1.42179,1.44023 2.98286,2.8221 5.26317,4.72255 -0.825,-0.97131 -1.47682,-2.37297 -0.48405,-3.92182 z"
       fill="#5903ae"
       id="path826"
       style="stroke-width:0.264583" />
    <path
       d="m 108.18557,106.30053 c -0.37568,0 -0.71599,-0.0936 -1.02089,-0.28075 -0.29948,-0.18714 -0.53634,-0.45686 -0.71057,-0.80915 -0.17422,-0.35782 -0.26135,-0.77891 -0.26135,-1.2633 0,-0.83672 0.17695,-1.6101 0.53088,-2.32019 0.35391,-0.71559 0.87662,-1.28807 1.56811,-1.717442 0.69149,-0.43486 1.52183,-0.6523 2.49097,-0.6523 0.25056,0 0.51726,0.0193 0.80037,0.0578 0.28866,0.0385 0.55007,0.0963 0.78422,0.17338 0.1524,0.0441 0.2286,0.15415 0.2286,0.33028 0,0.14312 -0.0545,0.278002 -0.16324,0.404602 -0.10346,0.12661 -0.22596,0.18989 -0.36751,0.18989 -0.0437,0 -0.0765,-0.003 -0.0982,-0.008 -0.2831,-0.066 -0.52546,-0.11284 -0.72681,-0.14036 -0.20161,-0.033 -0.41381,-0.0495 -0.63712,-0.0495 -0.69149,0 -1.27952,0.17063 -1.76411,0.51192 -0.48458,0.33578 -0.84666,0.78166 -1.08624,1.3376 -0.23958,0.55597 -0.35936,1.15596 -0.35936,1.80001 0,0.46789 0.0898,0.83119 0.26953,1.0899 0.1851,0.25321 0.42468,0.37984 0.71869,0.37984 0.33216,0 0.62346,-0.13764 0.87392,-0.41286 0.25045,-0.27522 0.47913,-0.72109 0.68603,-1.3376 0.20691,-0.61653 0.41098,-1.45322 0.61259,-2.5101 0.0325,-0.15412 0.0979,-0.25871 0.19606,-0.31377 0.0979,-0.055 0.2286,-0.0825 0.39185,-0.0825 0.38656,0 0.57997,0.1266 0.57997,0.37981 0,0.044 -0.008,0.0991 -0.0246,0.16512 -0.14156,0.53396 -0.27226,1.1257 -0.39185,1.77523 -0.1143,0.64405 -0.17145,1.13395 -0.17145,1.46973 0,0.29726 0.0434,0.51469 0.13044,0.6523 0.0873,0.13211 0.22066,0.19815 0.40031,0.19815 0.1741,0 0.34026,-0.0578 0.49821,-0.17338 0.15796,-0.1211 0.35666,-0.32478 0.59611,-0.611 0.0653,-0.0771 0.1389,-0.1156 0.22066,-0.1156 0.0706,0 0.12515,0.033 0.16325,0.0991 0.0437,0.066 0.0653,0.15687 0.0653,0.27247 0,0.21468 -0.0516,0.38531 -0.15505,0.51191 -0.26696,0.32478 -0.52837,0.57248 -0.78422,0.74314 -0.25585,0.17063 -0.56886,0.25595 -0.93927,0.25595 -0.381,0 -0.68871,-0.11009 -0.92287,-0.33028 -0.23408,-0.22568 -0.38108,-0.54221 -0.44098,-0.94953 -0.40291,0.8532 -0.9964,1.27981 -1.78046,1.27981 z"
       fill="#5903ae"
       id="path828"
       style="stroke-width:0.264583" />
    <path
       d="m 113.12693,106.30053 c -0.2069,0 -0.35401,-0.11007 -0.44106,-0.33025 -0.0818,-0.22019 -0.1225,-0.57248 -0.1225,-1.05688 0,-0.71562 0.10054,-1.39541 0.30215,-2.03946 0.0489,-0.15963 0.12806,-0.27522 0.23681,-0.34679 0.1143,-0.0771 0.27225,-0.1156 0.4736,-0.1156 0.10901,0 0.18521,0.0138 0.22886,0.0413 0.0434,0.0275 0.0653,0.0798 0.0653,0.15689 0,0.0881 -0.041,0.28623 -0.1225,0.5945 -0.0545,0.22018 -0.0982,0.41283 -0.1307,0.57798 -0.0328,0.15962 -0.0601,0.36055 -0.0818,0.60275 0.14711,-0.42937 0.3212,-0.79267 0.52281,-1.0899 0.20691,-0.29726 0.41646,-0.51745 0.62892,-0.66056 0.21775,-0.14862 0.42175,-0.22294 0.61251,-0.22294 0.1905,0 0.32385,0.044 0.40005,0.13211 0.0818,0.0881 0.1225,0.22294 0.1225,0.4046 0,0.17613 -0.0516,0.4954 -0.15504,0.95779 -0.0437,0.19817 -0.0736,0.34679 -0.09,0.44588 0.27225,-0.67707 0.57441,-1.16973 0.90672,-1.47799 0.33205,-0.30827 0.64241,-0.46239 0.93107,-0.46239 0.35375,0 0.53076,0.17891 0.53076,0.53671 0,0.21466 -0.0598,0.60275 -0.17966,1.16422 -0.10345,0.47889 -0.15531,0.79542 -0.15531,0.94953 0,0.22019 0.0791,0.33028 0.23707,0.33028 0.10874,0 0.2368,-0.0661 0.38365,-0.19817 0.15266,-0.13761 0.35401,-0.35779 0.60457,-0.66056 0.0654,-0.077 0.13864,-0.11559 0.2204,-0.11559 0.0709,0 0.12514,0.033 0.16324,0.0991 0.0437,0.0661 0.0653,0.15687 0.0653,0.27247 0,0.22019 -0.0516,0.39084 -0.15504,0.51194 -0.23416,0.29173 -0.48736,0.53118 -0.75962,0.71835 -0.2667,0.18716 -0.57176,0.28072 -0.91466,0.28072 -0.27782,0 -0.48737,-0.0798 -0.62892,-0.23945 -0.14155,-0.16513 -0.21246,-0.40182 -0.21246,-0.71009 0,-0.15412 0.0384,-0.42934 0.11456,-0.82568 0.0706,-0.34679 0.1061,-0.58624 0.1061,-0.71835 0,-0.0881 -0.0299,-0.1321 -0.09,-0.1321 -0.0706,0 -0.17145,0.0936 -0.30215,0.28072 -0.13071,0.18166 -0.26141,0.42386 -0.39185,0.72663 -0.1307,0.30273 -0.23707,0.622 -0.31856,0.95779 -0.0601,0.26421 -0.1307,0.44037 -0.21246,0.52842 -0.0762,0.0881 -0.20135,0.13211 -0.37571,0.13211 -0.17965,0 -0.31564,-0.0853 -0.40825,-0.25596 -0.0873,-0.17613 -0.1307,-0.38806 -0.1307,-0.63577 0,-0.20918 0.0272,-0.51194 0.0818,-0.90826 0.0434,-0.35229 0.0651,-0.58348 0.0651,-0.69358 0,-0.0881 -0.0299,-0.1321 -0.0897,-0.1321 -0.0818,0 -0.18521,0.0991 -0.31036,0.29723 -0.12515,0.19817 -0.24765,0.45138 -0.36751,0.75965 -0.1143,0.30826 -0.2069,0.611 -0.27781,0.90826 -0.0598,0.25871 -0.1307,0.43487 -0.21219,0.52842 -0.0762,0.0881 -0.19871,0.13211 -0.36751,0.13211 z"
       fill="#5903ae"
       id="path830"
       style="stroke-width:0.264583" />
    <path
       d="m 122.98478,104.41794 c 0.0709,0 0.12515,0.0331 0.16325,0.0991 0.0437,0.0661 0.0653,0.15687 0.0653,0.27246 0,0.22019 -0.0516,0.39085 -0.15505,0.51195 -0.23416,0.29173 -0.48736,0.53117 -0.75962,0.71834 -0.2667,0.18717 -0.57176,0.28072 -0.91466,0.28072 -0.28866,0 -0.52282,-0.10456 -0.70247,-0.31374 -0.31036,0.20365 -0.63421,0.30824 -0.97182,0.31374 -0.0709,1.06241 -0.23151,1.94863 -0.4818,2.65872 -0.25056,0.71559 -0.61807,1.07342 -1.10279,1.07342 -0.29395,0 -0.5117,-0.10734 -0.65325,-0.32203 -0.14155,-0.21468 -0.21246,-0.51194 -0.21246,-0.89175 0,-0.53946 0.1225,-1.16972 0.3675,-1.89082 0.24501,-0.71559 0.62363,-1.5055 1.13533,-2.36974 0,-0.80364 -0.005,-1.36236 -0.0164,-1.67613 -0.005,-0.15963 0.0572,-0.28623 0.18785,-0.37981 0.13071,-0.0936 0.29422,-0.14036 0.49001,-0.14036 0.11457,0 0.19606,0.0248 0.24501,0.0743 0.0545,0.044 0.0844,0.13486 0.09,0.27249 0,0.13761 0.003,0.23945 0.008,0.30549 0.17409,-0.22018 0.34581,-0.37706 0.51461,-0.47064 0.16881,-0.0991 0.34846,-0.14861 0.53896,-0.14861 0.3048,0 0.55271,0.12385 0.74321,0.37155 0.19606,0.2477 0.29395,0.57248 0.29395,0.9743 0,0.29176 -0.0463,0.57523 -0.1389,0.85048 -0.0923,0.27522 -0.2204,0.52567 -0.38365,0.75136 0.1143,0.033 0.20955,0.0496 0.28575,0.0496 0.17965,0 0.3511,-0.0661 0.51462,-0.19817 0.16324,-0.13211 0.37279,-0.35229 0.62891,-0.66056 0.0653,-0.077 0.13864,-0.1156 0.2204,-0.1156 z m -3.23427,1.08992 c 0.19606,-0.0441 0.37571,-0.15139 0.53896,-0.32202 0.1688,-0.17616 0.30242,-0.39082 0.40031,-0.64405 0.0979,-0.25871 0.14711,-0.52842 0.14711,-0.80917 0,-0.16513 -0.0328,-0.28898 -0.0982,-0.37156 -0.0653,-0.0881 -0.1524,-0.1321 -0.26141,-0.1321 -0.19579,0 -0.43286,0.20917 -0.7104,0.62751 -0.006,0.2422 -0.008,0.59727 -0.008,1.06516 0,0.2532 -0.003,0.4486 -0.008,0.58623 z m -1.55998,3.7156 c 0.14711,0 0.26961,-0.32478 0.3675,-0.97433 0.0982,-0.64402 0.16061,-1.44769 0.18786,-2.41101 -0.23416,0.55046 -0.4191,1.07616 -0.55536,1.57707 -0.136,0.50091 -0.204,0.92202 -0.204,1.26331 0,0.17613 0.0217,0.31102 0.0653,0.40457 0.0381,0.0936 0.0844,0.14039 0.13865,0.14039 z"
       fill="#5903ae"
       id="path832"
       style="stroke-width:0.264583" />
    <path
       d="m 123.55628,106.30056 c -0.33735,0 -0.60696,-0.12388 -0.80857,-0.37159 -0.20135,-0.2477 -0.30215,-0.57247 -0.30215,-0.9743 0,-0.44037 0.1008,-0.85595 0.30215,-1.24679 0.20161,-0.39632 0.46831,-0.71284 0.80063,-0.94954 0.33734,-0.2422 0.694,-0.3633 1.06971,-0.3633 0.11986,0 0.1987,0.0248 0.23707,0.0743 0.0434,0.044 0.0789,0.12661 0.1061,0.24771 0.1143,-0.022 0.23415,-0.0331 0.3593,-0.0331 0.2667,0 0.40031,0.0963 0.40031,0.289 0,0.1156 -0.041,0.39082 -0.1225,0.82569 -0.12541,0.63301 -0.18785,1.07339 -0.18785,1.32109 0,0.0826 0.019,0.14864 0.0572,0.19817 0.0434,0.0496 0.0979,0.0743 0.16325,0.0743 0.10345,0 0.2286,-0.0661 0.3757,-0.19817 0.14711,-0.13761 0.34581,-0.3578 0.59611,-0.66056 0.0653,-0.077 0.13891,-0.1156 0.22066,-0.1156 0.0706,0 0.12515,0.0331 0.16325,0.0991 0.0437,0.0661 0.0653,0.1569 0.0653,0.2725 0,0.22016 -0.0516,0.39081 -0.15505,0.51191 -0.2233,0.28072 -0.46011,0.51742 -0.71067,0.71009 -0.25056,0.19267 -0.49265,0.289 -0.72681,0.289 -0.17965,0 -0.34581,-0.0606 -0.49821,-0.18166 -0.14711,-0.1266 -0.25876,-0.29726 -0.33496,-0.51191 -0.2831,0.46238 -0.63976,0.69357 -1.06997,0.69357 z m 0.29421,-0.83397 c 0.1196,0 0.23416,-0.0715 0.3429,-0.21466 0.10901,-0.14314 0.18786,-0.33303 0.23681,-0.56972 l 0.30215,-1.51927 c -0.2286,0.005 -0.4408,0.0936 -0.63685,0.26421 -0.1905,0.16513 -0.34317,0.38532 -0.45747,0.66056 -0.1143,0.27522 -0.17145,0.56695 -0.17145,0.87522 0,0.17065 0.0325,0.29726 0.0979,0.37981 0.0709,0.0826 0.16616,0.12385 0.28602,0.12385 z"
       fill="#5903ae"
       id="path834"
       style="stroke-width:0.264583" />
    <path
       d="m 126.9702,106.30053 c -0.20691,0 -0.35402,-0.11007 -0.44106,-0.33025 -0.0818,-0.22019 -0.12251,-0.57248 -0.12251,-1.05688 0,-0.71562 0.10081,-1.39541 0.30216,-2.03946 0.049,-0.15963 0.12806,-0.27522 0.2368,-0.34679 0.11456,-0.0771 0.27226,-0.1156 0.47387,-0.1156 0.10874,0 0.18494,0.0138 0.2286,0.0413 0.0437,0.0275 0.0653,0.0798 0.0653,0.15689 0,0.0881 -0.0408,0.28623 -0.1225,0.5945 -0.0545,0.22018 -0.0979,0.41283 -0.13071,0.57798 -0.0325,0.16513 -0.0598,0.3688 -0.0818,0.611 0.17965,-0.47339 0.38127,-0.8587 0.60458,-1.15596 0.22304,-0.29724 0.44106,-0.50917 0.65325,-0.63577 0.21775,-0.1266 0.41646,-0.18992 0.59637,-0.18992 0.35375,0 0.53076,0.17891 0.53076,0.53671 0,0.0715 -0.0246,0.24495 -0.0735,0.52017 -0.0437,0.22019 -0.0653,0.3578 -0.0653,0.41286 0,0.19264 0.068,0.28897 0.20425,0.28897 0.1524,0 0.34846,-0.1211 0.58791,-0.3633 0.0709,-0.0716 0.14446,-0.10734 0.22066,-0.10734 0.0706,0 0.12515,0.033 0.16325,0.0991 0.0437,0.0605 0.0654,0.14311 0.0654,0.2477 0,0.20368 -0.0545,0.3633 -0.16325,0.4789 -0.1524,0.15965 -0.33232,0.29726 -0.53922,0.41285 -0.20135,0.1101 -0.41645,0.16513 -0.64505,0.16513 -0.28866,0 -0.50906,-0.0743 -0.66146,-0.22294 -0.14711,-0.14861 -0.22066,-0.34954 -0.22066,-0.60275 0,-0.0826 0.008,-0.16512 0.0246,-0.2477 0.0109,-0.11009 0.0161,-0.18441 0.0161,-0.22294 0,-0.0881 -0.0299,-0.1321 -0.0897,-0.1321 -0.0818,0 -0.1905,0.0936 -0.32676,0.28072 -0.13071,0.18166 -0.26141,0.42386 -0.39185,0.72663 -0.13071,0.30273 -0.23707,0.622 -0.31856,0.95779 -0.0601,0.25871 -0.1307,0.43487 -0.21246,0.52842 -0.0762,0.0881 -0.1987,0.13211 -0.36751,0.13211 z"
       fill="#5903ae"
       id="path836"
       style="stroke-width:0.264583" />
    <path
       d="m 133.03021,104.66567 c 0.0709,0 0.12542,0.0331 0.16352,0.0991 0.0434,0.0661 0.0653,0.15689 0.0653,0.27249 0,0.19815 -0.0463,0.3688 -0.13891,0.51192 -0.1524,0.23669 -0.35401,0.42111 -0.60431,0.55321 -0.245,0.13211 -0.53922,0.19815 -0.88212,0.19815 -0.52282,0 -0.92842,-0.15687 -1.21682,-0.47064 -0.28866,-0.31925 -0.43286,-0.74861 -0.43286,-1.28807 0,-0.37981 0.0789,-0.7321 0.23681,-1.05688 0.15795,-0.33028 0.3757,-0.59174 0.65325,-0.78438 0.28311,-0.19267 0.60166,-0.28901 0.95568,-0.28901 0.31564,0 0.56885,0.0963 0.75962,0.28901 0.1905,0.18714 0.28575,0.44309 0.28575,0.76787 0,0.37981 -0.136,0.70734 -0.40826,0.98258 -0.26696,0.26972 -0.72416,0.4844 -1.37213,0.64402 0.13071,0.25321 0.35111,0.37981 0.66146,0.37981 0.22331,0 0.40561,-0.0523 0.54716,-0.15687 0.14711,-0.10459 0.31591,-0.28072 0.50641,-0.52845 0.0653,-0.0826 0.13891,-0.12385 0.2204,-0.12385 z m -1.33932,-1.44494 c -0.20135,0 -0.37306,0.11834 -0.51461,0.35504 -0.136,0.2367 -0.204,0.52295 -0.204,0.85871 v 0.0165 c 0.32121,-0.0771 0.57441,-0.19267 0.75936,-0.34679 0.18521,-0.15414 0.27781,-0.33303 0.27781,-0.5367 0,-0.10459 -0.0299,-0.18717 -0.09,-0.24771 -0.0542,-0.0661 -0.1307,-0.0991 -0.2286,-0.0991 z"
       fill="#5903ae"
       id="path838"
       style="stroke-width:0.264583" />
  </g>
</svg>
