<?xml version="1.0" encoding="UTF-8" standalone="no"?>
<!-- Created with Inkscape (http://www.inkscape.org/) -->

<svg
   width="247.81627mm"
   height="95.887939mm"
   viewBox="0 0 247.81627 95.887939"
   version="1.1"
   id="svg962"
   inkscape:version="1.1.2 (0a00cf5339, 2022-02-04)"
   sodipodi:docname="logo.orange.svg"
   xmlns:inkscape="http://www.inkscape.org/namespaces/inkscape"
   xmlns:sodipodi="http://sodipodi.sourceforge.net/DTD/sodipodi-0.dtd"
   xmlns="http://www.w3.org/2000/svg"
   xmlns:svg="http://www.w3.org/2000/svg">
  <sodipodi:namedview
     id="namedview964"
     pagecolor="#ffffff"
     bordercolor="#666666"
     borderopacity="1.0"
     inkscape:pageshadow="2"
     inkscape:pageopacity="0.0"
     inkscape:pagecheckerboard="0"
     inkscape:document-units="mm"
     showgrid="false"
     fit-margin-top="0"
     fit-margin-left="0"
     fit-margin-right="0"
     fit-margin-bottom="0"
     inkscape:zoom="0.75187991"
     inkscape:cx="591.18483"
     inkscape:cy="456.85487"
     inkscape:window-width="2560"
     inkscape:window-height="1016"
     inkscape:window-x="0"
     inkscape:window-y="27"
     inkscape:window-maximized="1"
     inkscape:current-layer="layer1" />
  <defs
     id="defs959" />
  <g
     inkscape:label="Layer 1"
     inkscape:groupmode="layer"
     id="layer1"
     transform="translate(51.41761,-27.71361)">
    <g
       id="g74827"
       transform="matrix(0.02449795,0,0,-0.02449795,-476.16196,110.39432)">
      <g
         id="g74815">
        <path
           d="m 8143.0304,-7096.4893 c 0,0 761.5474,691.3009 935.2894,846.451 331.6628,296.202 -55.5662,612.4162 -287.0515,559.0269 -323.3157,-74.5772 -700.5678,-320.0909 -1097.7389,-542.2976 0,0 -1485.6782,-436.1712 -1991.0016,-1215.9613 -722.8967,-1115.5392 800.3961,-2032.3881 800.3961,-2032.3881 651.323,619.1451 1229.978,1048.7154 1907.4834,1360.3544 494.4499,227.4339 1013.3127,456.3696 1181.5132,496.2777 350.6273,83.2154 561.4945,797.2527 658.0165,1260.3514 90.038,431.9568 342.188,1371.9961 -29.104,1372.0194 -338.0774,0.012 -469.5598,-347.6238 -520.6905,-617.9926 -52.7722,-279.0769 -127.559,-553.532 -231.8461,-817.7074 l -20.4896,-51.9107 -936.8844,-282.5345"
           style="fill:none;fill-opacity:1;stroke:#fc9e2d;stroke-width:244.049;stroke-linecap:butt;stroke-linejoin:miter;stroke-miterlimit:10;stroke-dasharray:none;stroke-opacity:1"
           id="path10324"
           transform="matrix(0.52667786,0,0,0.52667786,16027.573,4534.9706)" />
        <path
           d="m 5702.5395,-7449.271 c 505.3233,779.7906 1990.9899,1215.962 1990.9899,1215.962 397.1944,222.2069 774.4348,467.7207 1097.7505,542.298 231.4737,53.4009 618.726,-262.8251 287.0515,-559.0273 -173.742,-155.1502 -567.3973,-512.7628 -567.3973,-512.7628 l 936.8843,282.5346 20.4896,51.9225 c 104.2871,264.164 179.0739,538.631 231.8462,817.6962 51.1307,270.3692 182.613,618.0164 520.7018,617.9931 101.202,-0.012 155.861,-70.1768 180.32,-180.5642 141.506,489.7353 113.437,804.2035 113.437,804.2035 h -0.267 c 1.164,27.5327 2.177,55.1122 2.177,82.9244 0,1115.8543 -941.1222,2083.0899 -2102.0877,2083.0899 -848.8026,0 -1579.6041,-546.4782 -1911.4765,-1242.6221 h -0.4191 c -331.884,696.1439 -1062.6855,1242.6221 -1911.4881,1242.6221 -1160.9538,0 -2102.0874,-967.2356 -2102.0874,-2083.0899 0,-27.8122 1.0244,-55.3917 2.1886,-82.9244 h -0.2794 c 0,0 -118.6764,-1325.558 1356.4893,-2772.7959 551.9138,-553.0085 1157.892,-1083.6065 2043.0752,-1813.3259 -320.2539,372.9566 -573.2765,911.1567 -187.8984,1505.8662"
           style="fill:#fc9e2d;fill-opacity:1;fill-rule:nonzero;stroke:#fc9e2d;stroke-width:1.16418;stroke-opacity:1"
           id="path10326"
           transform="matrix(0.52667786,0,0,0.52667786,16027.573,4534.9706)" />
      </g>
      <g
         aria-label="Ampare"
         transform="scale(1,-1)"
         id="text25063"
         style="font-size:1669.78px;line-height:1.25;fill:#fc9e2d;fill-opacity:1;stroke-width:8.69682">
        <path
           d="m 22327.532,-1083.0003 q -115.215,0 -208.723,-56.7726 -91.838,-56.7725 -145.271,-163.6384 -53.433,-108.5357 -53.433,-255.4764 0,-253.8065 108.536,-469.2081 108.536,-217.0714 320.598,-347.3143 212.062,-131.9126 509.283,-131.9126 76.81,0 163.638,11.6885 88.498,11.6884 160.299,35.0653 46.754,13.3583 46.754,66.7912 0,43.4143 -33.396,81.8193 -31.726,38.4049 -75.14,38.4049 -13.358,0 -20.037,-1.6698 -86.829,-20.0373 -148.611,-28.3862 -61.781,-10.0187 -130.242,-10.0187 -212.063,0 -360.673,103.5263 -148.61,101.8566 -222.081,270.5044 -73.47,168.6478 -73.47,364.012 0,141.9314 55.103,220.411 56.772,76.8099 146.94,76.8099 101.857,0 178.667,-83.489 76.81,-83.489 140.261,-270.5044 63.452,-187.0153 125.234,-507.6131 10.019,-46.7538 40.075,-63.4516 30.056,-16.6978 80.149,-16.6978 118.554,0 118.554,76.8098 0,13.3583 -5.009,33.3956 -43.414,161.9687 -80.149,359.0027 -35.066,195.3643 -35.066,297.2209 0,90.1681 26.717,131.9126 26.716,40.0747 81.819,40.0747 53.433,0 101.857,-35.0653 48.423,-36.7352 121.893,-123.5638 20.038,-23.3769 45.085,-23.3769 21.707,0 33.395,20.0374 13.358,20.0373 13.358,55.1027 0,65.1214 -31.725,103.5264 -81.82,98.517 -160.299,150.2802 -78.48,51.7632 -192.025,51.7632 -116.885,0 -188.685,-66.7912 -71.801,-68.461 -90.168,-192.0247 -123.564,258.8159 -364.012,258.8159 z"
           style="font-weight:bold;font-family:Pacifico;-inkscape-font-specification:'Pacifico Bold';fill:#fc9e2d;fill-opacity:1"
           id="path74322" />
        <path
           d="m 23337.747,-1083.0003 q -63.451,0 -90.168,-66.7912 -25.046,-66.7912 -25.046,-213.7319 0,-217.0714 61.781,-412.4357 15.028,-48.4236 48.424,-70.1307 35.065,-23.3769 96.847,-23.3769 33.396,0 46.754,8.3489 13.358,8.3489 13.358,31.7258 0,26.7165 -25.046,120.2241 -16.698,66.7912 -26.717,116.8846 -10.018,48.4237 -16.698,121.894 45.084,-130.2429 106.866,-220.411 63.452,-90.1681 128.573,-133.5824 66.792,-45.084 125.234,-45.084 58.442,0 81.819,26.7164 25.047,26.7165 25.047,81.8193 0,53.4329 -31.726,193.6944 -13.358,60.1121 -18.368,90.1682 83.489,-205.383 185.346,-298.8907 101.857,-93.5076 190.355,-93.5076 108.536,0 108.536,108.5357 0,65.1214 -36.736,235.4389 -31.725,145.2709 -31.725,192.0248 0,66.7912 48.423,66.7912 33.396,0 78.48,-40.0748 46.754,-41.7445 123.564,-133.5824 20.037,-23.3769 45.084,-23.3769 21.707,0 33.395,20.0374 13.359,20.0373 13.359,55.1027 0,66.7912 -31.726,103.5264 -71.801,88.4983 -155.29,145.2708 -81.819,56.7726 -187.015,56.7726 -85.159,0 -128.573,-48.4237 -43.415,-50.0934 -43.415,-143.601 0,-46.7539 23.377,-166.978 21.708,-105.1962 21.708,-145.2709 0,-26.7165 -18.368,-26.7165 -21.707,0 -61.782,56.7725 -40.075,55.1028 -80.149,146.9407 -40.075,91.8379 -65.122,193.6945 -18.367,80.1494 -43.414,106.8659 -23.377,26.7165 -76.81,26.7165 -55.103,0 -83.489,-51.7632 -26.716,-53.433 -26.716,-128.5731 0,-63.4516 16.697,-183.6758 13.359,-106.8659 13.359,-140.2615 0,-26.7165 -18.368,-26.7165 -25.047,0 -63.452,60.1121 -38.405,60.1121 -75.14,153.6198 -35.065,93.5076 -56.772,183.6758 -18.368,78.4796 -43.414,106.8659 -23.377,26.7165 -75.141,26.7165 z"
           style="font-weight:bold;font-family:Pacifico;-inkscape-font-specification:'Pacifico Bold';fill:#fc9e2d;fill-opacity:1"
           id="path74324" />
        <path
           d="m 25353.171,-1463.7102 q 21.707,0 33.395,20.0374 13.359,20.0373 13.359,55.1027 0,66.7912 -31.726,103.5264 -71.801,88.4983 -155.29,145.2708 -81.819,56.7726 -187.015,56.7726 -88.498,0 -143.601,-63.4517 -95.178,61.7819 -198.704,63.4517 -21.707,322.2675 -98.517,537.66913 -76.81,217.0714 -225.42,217.0714 -90.168,0 -133.583,-65.12142 -43.414,-65.12142 -43.414,-180.33624 0,-163.63845 75.14,-382.37963 75.14,-217.07144 232.1,-479.22684 0,-243.7879 -3.34,-338.9654 -1.67,-48.4236 38.405,-76.8099 40.075,-28.3862 100.187,-28.3862 35.065,0 50.093,15.028 16.698,13.3582 18.368,55.1027 0,41.7445 1.67,61.7819 53.432,-66.7912 105.196,-95.1775 51.763,-30.056 110.205,-30.056 93.508,0 151.95,75.1401 60.112,75.1401 60.112,197.034 0,88.4984 -28.386,171.9874 -28.386,83.489 -78.48,151.95 35.066,10.0187 58.443,10.0187 55.102,0 105.196,-40.0748 50.093,-40.0747 128.573,-133.5824 20.037,-23.3769 45.084,-23.3769 z m -661.233,220.411 q 60.112,-13.3583 110.205,-65.1214 51.764,-53.433 81.82,-130.2429 30.056,-78.4797 30.056,-163.6384 0,-50.0934 -20.038,-75.1401 -20.037,-26.7165 -53.433,-26.7165 -60.112,0 -145.27,126.9033 -1.67,73.4703 -1.67,215.4016 0,76.8099 -1.67,118.5544 z m -318.928,751.40099 q 45.084,0 75.14,-197.03405 30.056,-195.36426 38.405,-487.57574 -71.801,166.978 -113.545,318.92796 -41.745,151.94998 -41.745,255.47635 0,53.43296 13.359,81.81922 11.688,28.38626 28.386,28.38626 z"
           style="font-weight:bold;font-family:Pacifico;-inkscape-font-specification:'Pacifico Bold';fill:#fc9e2d;fill-opacity:1"
           id="path74326" />
        <path
           d="m 25470.054,-1083.0003 q -103.526,0 -165.308,-75.1401 -61.782,-75.1401 -61.782,-197.0341 0,-133.5824 61.782,-252.1368 61.782,-120.2241 163.638,-192.0247 103.526,-73.4703 218.741,-73.4703 36.735,0 48.424,15.028 13.358,13.3583 21.707,50.0934 35.065,-6.6791 73.47,-6.6791 81.82,0 81.82,58.4423 0,35.0654 -25.047,166.978 -38.405,192.0247 -38.405,267.1648 0,25.0467 11.688,40.0747 13.359,15.0281 33.396,15.0281 31.726,0 76.81,-40.0748 45.084,-41.7445 121.894,-133.5824 20.037,-23.3769 45.084,-23.3769 21.707,0 33.395,20.0374 13.359,20.0373 13.359,55.1027 0,66.7912 -31.726,103.5264 -68.461,85.1588 -145.271,143.6011 -76.81,58.4423 -148.61,58.4423 -55.103,0 -101.857,-36.7352 -45.084,-38.4049 -68.461,-103.5264 -86.829,140.2616 -218.741,140.2616 z m 60.112,-168.6478 q 36.735,0 70.131,-43.4143 33.395,-43.4143 48.423,-115.2148 l 61.782,-307.2396 q -70.131,1.6698 -130.243,53.433 -58.442,50.0934 -93.507,133.5824 -35.066,83.489 -35.066,176.9967 0,51.7632 20.038,76.8099 21.707,25.0467 58.442,25.0467 z"
           style="font-weight:bold;font-family:Pacifico;-inkscape-font-specification:'Pacifico Bold';fill:#fc9e2d;fill-opacity:1"
           id="path74328" />
        <path
           d="m 26168.021,-1083.0003 q -63.452,0 -90.168,-66.7912 -25.047,-66.7912 -25.047,-213.7319 0,-217.0714 61.782,-412.4357 15.028,-48.4236 48.423,-70.1307 35.066,-23.3769 96.848,-23.3769 33.395,0 46.753,8.3489 13.359,8.3489 13.359,31.7258 0,26.7165 -25.047,120.2241 -16.698,66.7912 -26.716,116.8846 -10.019,50.0934 -16.698,123.5638 55.102,-143.6011 123.563,-233.7692 68.461,-90.1682 133.583,-128.5731 66.791,-38.4049 121.894,-38.4049 108.535,0 108.535,108.5357 0,21.7071 -15.028,105.1961 -13.358,66.7912 -13.358,83.489 0,58.4423 41.745,58.4423 46.754,0 120.224,-73.4703 21.707,-21.7072 45.084,-21.7072 21.707,0 33.396,20.0374 13.358,18.3676 13.358,50.0934 0,61.7819 -33.396,96.8473 -46.754,48.4236 -110.205,83.489 -61.782,33.3956 -131.913,33.3956 -88.498,0 -135.252,-45.0841 -45.084,-45.0841 -45.084,-121.894 0,-25.0467 5.009,-50.0934 3.34,-33.3956 3.34,-45.084 0,-26.7165 -18.368,-26.7165 -25.047,0 -66.791,56.7725 -40.075,55.1028 -80.149,146.9407 -40.075,91.8379 -65.122,193.6945 -18.367,78.4796 -43.414,106.8659 -23.377,26.7165 -75.14,26.7165 z"
           style="font-weight:bold;font-family:Pacifico;-inkscape-font-specification:'Pacifico Bold';fill:#fc9e2d;fill-opacity:1"
           id="path74330" />
        <path
           d="m 27406.998,-1413.6168 q 21.707,0 33.395,20.0374 13.358,20.0373 13.358,55.1027 0,60.1121 -28.386,103.5264 -46.754,71.8005 -123.564,111.8752 -75.14,40.0748 -180.336,40.0748 -160.299,0 -248.797,-95.1775 -88.498,-96.8472 -88.498,-260.4857 0,-115.2148 48.423,-213.7318 48.424,-100.1868 133.583,-158.6291 86.828,-58.4423 195.364,-58.4423 96.847,0 155.289,58.4423 58.443,56.7725 58.443,155.2895 0,115.2148 -83.489,198.7038 -81.819,81.8193 -280.523,130.2429 40.074,76.8099 135.252,76.8099 68.461,0 111.875,-31.7259 45.084,-31.7258 103.527,-106.8659 20.037,-25.0467 45.084,-25.0467 z m -273.844,-292.2115 q -61.782,0 -105.196,71.8005 -41.745,71.8006 -41.745,173.6572 v 3.3395 q 98.517,-23.3769 155.29,-70.1307 56.772,-46.7539 56.772,-108.5357 0,-31.7259 -18.367,-50.0934 -16.698,-20.0374 -46.754,-20.0374 z"
           style="font-weight:bold;font-family:Pacifico;-inkscape-font-specification:'Pacifico Bold';fill:#fc9e2d;fill-opacity:1"
           id="path74332" />
      </g>
    </g>
  </g>
</svg>
